<svg viewBox="0 0 36 23" fill="none" xmlns="http://www.w3.org/2000/svg" width="36" height="23" style="display: block; position: relative;"><path d="M7.37175 4.50748C13.2411 -1.44618 22.7572 -1.44618 28.6265 4.50748L29.3329 5.22402C29.6264 5.5217 29.6264 6.00434 29.3329 6.30202L26.9165 8.75314C26.7698 8.90198 26.5319 8.90198 26.3851 8.75314L25.4131 7.76711C21.3185 3.61368 14.6798 3.61368 10.5852 7.76711L9.5442 8.82307C9.39747 8.97191 9.15957 8.97191 9.01283 8.82307L6.59643 6.37195C6.30296 6.07427 6.30296 5.59163 6.59643 5.29394L7.37175 4.50748ZM33.6239 9.57665L35.7745 11.7582C36.068 12.0558 36.068 12.5385 35.7745 12.8362L26.0773 22.6728C25.7838 22.9705 25.308 22.9705 25.0145 22.6729C25.0145 22.6728 25.0145 22.6728 25.0145 22.6728L18.132 15.6915C18.0587 15.617 17.9397 15.617 17.8663 15.6915C17.8663 15.6915 17.8663 15.6915 17.8663 15.6915L10.984 22.6728C10.6905 22.9705 10.2147 22.9705 9.92126 22.6729C9.92126 22.6729 9.92125 22.6729 9.92125 22.6728L0.223763 12.836C-0.0697047 12.5384 -0.0697047 12.0557 0.223763 11.758L2.37437 9.57653C2.66784 9.27884 3.14364 9.27884 3.43711 9.57653L10.3197 16.558C10.3931 16.6324 10.512 16.6324 10.5854 16.558C10.5854 16.558 10.5854 16.558 10.5854 16.558L17.4676 9.57653C17.7611 9.27884 18.2369 9.27883 18.5304 9.5765C18.5304 9.57651 18.5304 9.57651 18.5304 9.57652L25.413 16.558C25.4864 16.6324 25.6053 16.6324 25.6787 16.558L32.5611 9.57665C32.8546 9.27897 33.3304 9.27897 33.6239 9.57665Z" fill="white"></path></svg>
